{
  "accessors": [
    {
      "name": "Frame_0000000-Mesh_0_positions",
      "componentType": 5126,
      "count": 7357,
      "min": [
        -33.156864166259766,
        0.0660649985074997,
        -13.989042282104492
      ],
      "max": [
        26.738407135009766,
        180.67605590820312,
        22.226932525634766
      ],
      "type": "VEC3",
      "bufferView": 0,
      "byteOffset": 0
    },
    {
      "name": "Frame_0000000-Mesh_0_indices",
      "componentType": 5123,
      "count": 44130,
      "min": [
        0
      ],
      "max": [
        7356
      ],
      "type": "SCALAR",
      "bufferView": 1,
      "byteOffset": 0
    }
  ],
  "asset": {
    "generator": "obj2gltf",
    "version": "2.0"
  },
  "buffers": [
    {
      "name": "blender_roger",
      "byteLength": 176544,
      "uri": "data:application/octet-stream;base64,"
    }
  ],
  "bufferViews": [
    {
      "name": "bufferView_0",
      "buffer": 0,
      "byteLength": 88284,
      "byteOffset": 0,
      "byteStride": 12,
      "target": 34962
    },
    {
      "name": "bufferView_1",
      "buffer": 0,
      "byteLength": 88260,
      "byteOffset": 88284,
      "target": 34963
    }
  ],
  "materials": [
    {
      "name": "mat0",
      "pbrMetallicRoughness": {
        "baseColorFactor": [
          0.64,
          0.64,
          0.64,
          1
        ],
        "metallicFactor": 0,
        "roughnessFactor": 0.903921569
      },
      "emissiveFactor": [
        0,
        0,
        0
      ],
      "alphaMode": "OPAQUE",
      "doubleSided": false
    }
  ],
  "meshes": [
    {
      "name": "Frame_0000000-Mesh",
      "primitives": [
        {
          "attributes": {
            "POSITION": 0
          },
          "indices": 1,
          "material": 0,
          "mode": 4
        }
      ]
    }
  ],
  "nodes": [
    {
      "name": "Frame_0000000",
      "mesh": 0
    }
  ],
  "scene": 0,
  "scenes": [
    {
      "nodes": [
        0
      ]
    }
  ]
}
